# xmcd
#
# Track frame offsets:
#	150
#	9692
#	22250
#	30002
#	45735
#	46312
#	53475
#	65075
#	65610
#	77529
#	89407
#	89987
#
# Disc length: 1393 seconds
#
# Revision: 1
# Processed by: cddbd v1.5.1PL0 Copyright (c) Steve Scherf et al.
# Submitted via: audiograbber 1.81.02
#
DISCID=9b056f0c
DTITLE=Brass Connection - Majesty - Playback (www.gerth.de)
DYEAR=2004
DGENRE=Bluegrass
TTITLE0=Majesty
TTITLE1=Peace, Joy And Love
TTITLE2=How Majestic Is Your Name
TTITLE3=The Blood - Jesus Is The Answer
TTITLE4=Nearer, Still Nearer
TTITLE5=Let's Sing And Praise
TTITLE6=Give Them All To Jesus
TTITLE7=Forgotten Dreams
TTITLE8=Swing Low, Sweet Chariot
TTITLE9=Sandyland
TTITLE10=Amazing Grace
TTITLE11=Tuxedo Junction
EXTD=
EXTT0=
EXTT1=
EXTT2=
EXTT3=
EXTT4=
EXTT5=
EXTT6=
EXTT7=
EXTT8=
EXTT9=
EXTT10=
EXTT11=
PLAYORDER=
